<svg xmlns="http://www.w3.org/2000/svg" viewBox="0 0 24 24">
  <path d="M18,21H6c-1.657,0-3-1.343-3-3V6c0-1.657,1.343-3,3-3h12c1.657,0,3,1.343,3,3v12C21,19.657,19.657,21,18,21z" opacity=".35" fill="#EAEBDE" />
  <path d="M9.645,7.751c-0.02-0.136-0.139-0.232-0.278-0.224C8.993,7.552,8.568,7.778,8.31,8.09C8.032,8.429,7.905,8.846,7.97,9.206 c0.022,0.121,0.126,0.211,0.25,0.215c0.012,0.001,0.023,0.001,0.035,0.001c0.387,0,0.799-0.212,1.059-0.547 C9.579,8.533,9.699,8.123,9.645,7.751z" fill="#EAEBDE" />
  <path d="M10.963,12.991c-0.031-0.075-0.092-0.134-0.168-0.162c-0.405-0.148-0.674-0.5-0.703-0.92 c-0.028-0.403,0.18-0.762,0.556-0.961c0.077-0.041,0.132-0.114,0.149-0.2c0.017-0.086-0.006-0.174-0.062-0.241 c-0.374-0.449-0.908-0.717-1.428-0.717c-0.36,0-0.611,0.092-0.812,0.165c-0.31,0.113-0.528,0.095-0.836-0.01 C7.449,9.874,7.21,9.792,6.906,9.792c-0.591,0-1.188,0.341-1.557,0.89c-0.556,0.824-0.404,2.239,0.362,3.364 C6.011,14.487,6.433,14.995,7.027,15c0.004,0,0.008,0,0.012,0c0.245,0,0.413-0.072,0.561-0.135 c0.148-0.063,0.276-0.118,0.516-0.119c0.232-0.005,0.362,0.053,0.506,0.117C8.771,14.928,8.955,15.003,9.191,15 c0.579-0.005,1.001-0.509,1.337-1.003c0.206-0.302,0.285-0.464,0.43-0.773C10.992,13.151,10.994,13.066,10.963,12.991z" fill="#EAEBDE" />
  <path d="M11.985,13.385v-3.78c0-0.307,0.249-0.556,0.556-0.556h0c0.307,0,0.556,0.249,0.556,0.556v3.841 c0,0.297,0.241,0.538,0.538,0.538h0.251c0.28,0,0.508,0.227,0.508,0.508v0c0,0.28-0.227,0.508-0.508,0.508H13.6 C12.708,15,11.985,14.277,11.985,13.385z" fill="#EAEBDE" />
  <path d="M17.252,15L17.252,15c-0.409,0-0.766-0.28-0.862-0.678l-0.84-3.48c-0.086-0.356,0.184-0.699,0.55-0.699h0.051 c0.273,0,0.507,0.195,0.557,0.463l0.573,3.09h0.014l0.567-3.089c0.049-0.269,0.284-0.464,0.557-0.464l0,0 c0.367,0,0.637,0.344,0.55,0.701l-0.856,3.481C18.016,14.721,17.66,15,17.252,15z" fill="#EAEBDE" />
  <path d="M14.139,11.22h-1.615c-0.297,0-0.538-0.241-0.538-0.538v0c0-0.297,0.241-0.538,0.538-0.538h1.615 c0.297,0,0.538,0.241,0.538,0.538v0C14.677,10.979,14.436,11.22,14.139,11.22z" fill="#EAEBDE" />
</svg>