<svg xmlns="http://www.w3.org/2000/svg" viewBox="0 0 50 50">
  <path d="M10 31c-3.309 0-6-2.691-6-6s2.691-6 6-6 6 2.691 6 6S13.309 31 10 31zM10 46c-3.309 0-6-2.691-6-6s2.691-6 6-6 6 2.691 6 6S13.309 46 10 46zM10 16c-3.309 0-6-2.691-6-6s2.691-6 6-6 6 2.691 6 6S13.309 16 10 16zM25 31c-3.309 0-6-2.691-6-6s2.691-6 6-6 6 2.691 6 6S28.309 31 25 31zM25 46c-3.309 0-6-2.691-6-6s2.691-6 6-6 6 2.691 6 6S28.309 46 25 46zM25 16c-3.309 0-6-2.691-6-6s2.691-6 6-6 6 2.691 6 6S28.309 16 25 16zM40 31c-3.309 0-6-2.691-6-6s2.691-6 6-6 6 2.691 6 6S43.309 31 40 31zM40 46c-3.309 0-6-2.691-6-6s2.691-6 6-6 6 2.691 6 6S43.309 46 40 46zM40 16c-3.309 0-6-2.691-6-6s2.691-6 6-6 6 2.691 6 6S43.309 16 40 16z" fill="#EAEBDE" />
</svg>